<svg id="Layer_1" data-name="Layer 1" xmlns="http://www.w3.org/2000/svg" width="297mm" height="217.18mm" viewBox="0 0 841.89 615.63">
  <defs>
    <style>
      .cls-1 {
        fill: #0d2b40;
      }

      .cls-2 {
        fill: none;
        stroke: #0d2b40;
        stroke-miterlimit: 10;
        stroke-width: 5px;
      }
    </style>
  </defs>
  <title>logo_design_blue</title>
  <g>
    <g>
      <path class="cls-1" d="M96.43,422.53q16.91,1.25,25.12,8.42a22.88,22.88,0,0,1,8.21,17.95,24.66,24.66,0,0,1-5.57,16.16,25.69,25.69,0,0,1-14.25,8.86Q101.26,476,86.68,476h-39v-3.37h3.81q6.38,0,8.83-1.61a7.3,7.3,0,0,0,3.11-5c.45-2.27.66-7.56.66-15.86V401.8q0-12.09-.69-15.61c-.47-2.34-1.44-4-2.93-4.84S55.74,380,50.71,380H48.8v-3.37l16.34-.44,18.61-.59q40.73,0,40.73,23.44a19.28,19.28,0,0,1-7,15.54Q110.48,420.48,96.43,422.53Zm-18-1.39c1.22.05,2.25.07,3.08.07q15.83,0,21.62-5T109,400.11q0-7.77-2.27-12a15.32,15.32,0,0,0-6.81-6.55q-4.55-2.31-15.54-2.31-2.85,0-5.86.22Zm0,3.59v22.12q0,14.14.51,17.95a9.07,9.07,0,0,0,2.75,5.79c1.49,1.32,4.44,2,8.83,2q11.73,0,17.59-6t5.86-18q0-12.32-6.63-18.14T84,424.58C82.28,424.58,80.43,424.63,78.47,424.73Z"/>
      <path class="cls-1" d="M142,445.9q0-13.77,9.23-23a32.49,32.49,0,0,1,45.49,0,31.35,31.35,0,0,1,9.24,23q0,15.17-9.38,23.85a32.17,32.17,0,0,1-22.64,8.68,31.7,31.7,0,0,1-22.6-8.83Q142,460.77,142,445.9Zm12.16.37q0,16,5.2,22.38t14.58,6.41q9.6,0,14.69-6.41t5.09-22.38q0-15.82-5.05-22.57T173.94,417q-9.6,0-14.69,6.7T154.16,446.27Z"/>
      <path class="cls-1" d="M232.11,413.59h2A39.86,39.86,0,0,1,236,426a38.37,38.37,0,0,1,11.07-9.3,25.41,25.41,0,0,1,12.08-3.08q7.19,0,11.76,3a13.51,13.51,0,0,1,5.9,7.37q1.32,4.35,1.32,12.71v18.75a122.24,122.24,0,0,0,.36,12.68,4.64,4.64,0,0,0,2.32,3.41q1.93,1.13,7.14,1.13V476h-30.7v-3.37h1.39q5.28,0,6.89-1.54a5.66,5.66,0,0,0,1.83-3.59q.22-2,.22-12.09V436.08a51.6,51.6,0,0,0-.69-10.14,9.6,9.6,0,0,0-3.74-5.39,12.32,12.32,0,0,0-7.73-2.34,18.41,18.41,0,0,0-10.22,3.18A33.94,33.94,0,0,0,236,431v24.47a108.21,108.21,0,0,0,.41,12.68,4.72,4.72,0,0,0,2.34,3.41c1.29.75,3.7,1.13,7.21,1.13V476H215.63v-3.37c3.36,0,5.71-.34,7-1a4.51,4.51,0,0,0,2.45-3.12q.48-2.08.48-13.08V437.55q0-10.49-.4-12.71a4.67,4.67,0,0,0-2.35-3.37q-1.93-1.14-7.21-1.14V417A94.44,94.44,0,0,0,232.11,413.59Z"/>
      <path class="cls-1" d="M540.7,425.9a31,31,0,0,1,9.85-9.23,24,24,0,0,1,12-3.08c4.94,0,9,1,12.27,3.08a14.25,14.25,0,0,1,6.34,7.58q1.47,4.51,1.47,14.62v16.55q0,10.56.4,12.83a4.48,4.48,0,0,0,2.38,3.33q2,1.07,7.33,1.06V476h-31v-3.37h1.39q5.34,0,6.92-1.54a5.94,5.94,0,0,0,1.83-3.62q.25-2.09.26-12.06v-18a51,51,0,0,0-.88-11.06,10.23,10.23,0,0,0-4.14-5.94,13.65,13.65,0,0,0-8.17-2.34,16.93,16.93,0,0,0-10.26,3.33,28.32,28.32,0,0,0-8,10v24q0,10.11.33,12.46a4.75,4.75,0,0,0,2.24,3.55q1.89,1.21,7,1.21V476H519.74v-3.37h1.55q5.26,0,6.84-1.5a5.81,5.81,0,0,0,1.83-3.59q.25-2.08.26-12.13V395.64q0-9.08-1.72-11.5t-8.24-2.42v-3.37q11.36,0,18.9-3.08h1.54Z"/>
      <path class="cls-1" d="M655.87,436.3H614c-.19,2.89-.29,5-.29,6.45q0,15.83,5,23.77t14.76,8q13.34,0,18.9-11.94h3.52a20.54,20.54,0,0,1-9.31,11.69,29.13,29.13,0,0,1-29.56.36,30.74,30.74,0,0,1-11.1-10.88q-4.32-7-4.32-17.07,0-14.2,8.35-23.62a26.76,26.76,0,0,1,20.88-9.42q11.81,0,18.25,7.18T655.87,436.3Zm-12.82-2.93a22.78,22.78,0,0,0,.22-3q0-6.45-3.77-10a13,13,0,0,0-9.27-3.56q-13.34,0-15.9,16.56Z"/>
      <path class="cls-1" d="M726.79,416v39.34q0,9.82.29,12.31a5,5,0,0,0,2.16,3.74q1.88,1.25,6.7,1.24V476q-11.13.15-16.26,2.35h-.87q-2.35-4-2.5-13.92a32.54,32.54,0,0,1-10.22,10.47,23.83,23.83,0,0,1-12.71,3.52,20.37,20.37,0,0,1-10.62-2.75,14.8,14.8,0,0,1-6.34-6.7q-1.73-4-1.72-11.94V436.6a119,119,0,0,0-.37-12.71,4.49,4.49,0,0,0-2.3-3.41c-1.3-.74-3.68-1.1-7.15-1.1V416h20.37v41.61a38.72,38.72,0,0,0,.73,8.94,8.67,8.67,0,0,0,3.74,4.87,11.82,11.82,0,0,0,7,2.09,18.11,18.11,0,0,0,10.77-3.7c3.41-2.47,5.75-5.08,7-7.84s1.87-6.7,1.87-11.83V436.6q0-9.83-.22-12a5.84,5.84,0,0,0-1.86-3.7q-1.66-1.57-6.85-1.57h-1.54V416Z"/>
      <path class="cls-1" d="M764.74,428.9A25,25,0,0,1,772.83,418q5.61-4.39,11-4.4a9.9,9.9,0,0,1,7.62,3,9.11,9.11,0,0,1,2.78,6.16,5.19,5.19,0,0,1-1.43,3.66,4.55,4.55,0,0,1-3.48,1.54q-3.66,0-5.57-5.42-1.32-3.66-4-3.66c-2.1,0-4.62,1.42-7.55,4.28a19.89,19.89,0,0,0-5.64,8.9,50.92,50.92,0,0,0-1.24,12.68v10.69q0,9.6.25,12.09a5.1,5.1,0,0,0,2.09,3.81q1.83,1.32,6.52,1.32h2V476H744.37v-3.37h1.54q4.4,0,6.26-1.21a4.84,4.84,0,0,0,2.24-3.4,118.64,118.64,0,0,0,.37-12.61V438.5q0-9.67-.26-12.12a5.17,5.17,0,0,0-2.09-3.81c-1.22-.91-3.4-1.36-6.52-1.36h-1.54v-3.3a102.8,102.8,0,0,0,18-4.32Q764.51,419.38,764.74,428.9Z"/>
    </g>
    <polyline class="cls-2" points="328.29 474.69 328.29 472.45 328.29 172.34 391.29 172.34 391.29 73.71 434.08 73.71 434.08 172.34 497.07 172.34 497.07 474.69"/>
    <path class="cls-2" d="M330.64,474.69V338.58l46.68-11.22a5.31,5.31,0,0,0,5.54-5V214.23a5.3,5.3,0,0,0-5.54-5h-103c-3.06,0-5.54,2.25-5.54,7.85V325.12a9.48,9.48,0,0,0,5.54,2.24L321,338.58V474.69"/>
    <polygon class="cls-1" points="329.65 474.69 287.77 475.99 287.77 472.76 330.64 472.76 329.65 474.69"/>
    <polygon class="cls-1" points="519.76 472.46 519.76 476 497.07 474.69 497.07 471.22 519.76 472.46"/>
  </g>
</svg>
