<svg id="Layer_1" data-name="Layer 1" xmlns="http://www.w3.org/2000/svg" width="297mm" height="217.18mm" viewBox="0 0 841.89 615.63">
  <defs>
    <style>
      .cls-1 {
        fill: #8e1913;
      }

      .cls-2 {
        fill: none;
        stroke: #8e1913;
        stroke-miterlimit: 10;
        stroke-width: 5px;
      }
    </style>
  </defs>
  <title>logo_design</title>
  <g>
    <g>
      <path class="cls-1" d="M154.9,379.65q13.88,1,20.6,6.91a18.78,18.78,0,0,1,6.73,14.72,20.22,20.22,0,0,1-4.57,13.24A21.08,21.08,0,0,1,166,421.79q-7.11,1.71-19.07,1.71H115v-2.76h3.12q5.22,0,7.24-1.33a6,6,0,0,0,2.55-4.11q.54-2.79.54-13V362.66q0-9.92-.57-12.8a5.54,5.54,0,0,0-2.4-4q-1.84-1.08-8-1.08h-1.57v-2.77l13.4-.36,15.26-.48q33.39,0,33.39,19.22a15.81,15.81,0,0,1-5.73,12.74Q166.43,378,154.9,379.65Zm-14.72-1.14q1.5.06,2.52.06,13,0,17.73-4.08t4.74-13.22q0-6.36-1.86-9.85a12.69,12.69,0,0,0-5.59-5.37Q154,344.16,145,344.16c-1.56,0-3.16.06-4.81.18Zm0,2.95v18.13q0,11.6.42,14.72a7.35,7.35,0,0,0,2.26,4.74q1.83,1.63,7.23,1.63,9.61,0,14.42-4.93t4.8-14.77q0-10.1-5.43-14.87t-19.13-4.77C143.31,381.34,141.78,381.38,140.18,381.46Z"/>
      <path class="cls-1" d="M192.26,398.81a25.7,25.7,0,0,1,7.57-18.89,26.66,26.66,0,0,1,37.29,0,25.74,25.74,0,0,1,7.58,18.86q0,12.44-7.69,19.55a26.35,26.35,0,0,1-18.56,7.12,26,26,0,0,1-18.53-7.24Q192.26,411,192.26,398.81Zm10,.3q0,13.09,4.27,18.35t11.95,5.26q7.86,0,12-5.26t4.17-18.35q0-13-4.14-18.5t-12.07-5.52q-7.87,0-12,5.49T202.23,399.11Z"/>
      <path class="cls-1" d="M266.14,372.33h1.62a32.7,32.7,0,0,1,1.56,10.15,31.32,31.32,0,0,1,9.07-7.63,20.85,20.85,0,0,1,9.91-2.52,17.3,17.3,0,0,1,9.64,2.46,11.06,11.06,0,0,1,4.83,6,37.81,37.81,0,0,1,1.09,10.43v15.37a103,103,0,0,0,.29,10.39,3.85,3.85,0,0,0,1.9,2.8q1.59.93,5.85.93v2.76H286.74v-2.76h1.14q4.32,0,5.64-1.27a4.62,4.62,0,0,0,1.5-2.94q.19-1.68.19-9.91V390.76a42,42,0,0,0-.57-8.31,7.84,7.84,0,0,0-3.07-4.42,10.06,10.06,0,0,0-6.33-1.92,15.06,15.06,0,0,0-8.38,2.61,27.72,27.72,0,0,0-7.54,7.84v20.06a89.58,89.58,0,0,0,.33,10.39,3.9,3.9,0,0,0,1.92,2.8q1.59.93,5.92.93v2.76H252.62v-2.76q4.14,0,5.77-.84a3.71,3.71,0,0,0,2-2.56q.39-1.71.39-10.72V392a89.86,89.86,0,0,0-.33-10.43,3.84,3.84,0,0,0-1.92-2.76q-1.59-.93-5.92-.93v-2.76A77.32,77.32,0,0,0,266.14,372.33Z"/>
      <path class="cls-1" d="M519.12,382.42a25.32,25.32,0,0,1,8.08-7.57,19.64,19.64,0,0,1,9.82-2.52,18.53,18.53,0,0,1,10.06,2.52,11.72,11.72,0,0,1,5.2,6.21q1.2,3.7,1.2,12v13.57a88.85,88.85,0,0,0,.33,10.51,3.65,3.65,0,0,0,2,2.73q1.62.88,6,.88v2.76h-25.4v-2.76h1.14q4.38,0,5.68-1.27a4.89,4.89,0,0,0,1.5-3q.21-1.71.21-9.88V391.85a40.76,40.76,0,0,0-.73-9.07,8.33,8.33,0,0,0-3.39-4.87,11.18,11.18,0,0,0-6.7-1.92,13.84,13.84,0,0,0-8.4,2.73,23.06,23.06,0,0,0-6.55,8.2v19.7q0,8.29.27,10.21a3.9,3.9,0,0,0,1.83,2.91c1,.67,2.95,1,5.71,1v2.76h-25v-2.76h1.27q4.32,0,5.61-1.24a4.76,4.76,0,0,0,1.5-2.94q.21-1.71.21-9.94v-49c0-5-.47-8.11-1.41-9.43s-3.19-2-6.76-2v-2.76q9.31,0,15.5-2.53h1.26Z"/>
      <path class="cls-1" d="M613.54,391h-34.3q-.24,3.54-.24,5.28,0,13,4.06,19.49t12.1,6.52q10.94,0,15.5-9.79h2.88a16.84,16.84,0,0,1-7.63,9.58,23.92,23.92,0,0,1-24.24.3,25.28,25.28,0,0,1-9.09-8.92,26.19,26.19,0,0,1-3.55-14q0-11.64,6.85-19.37A21.94,21.94,0,0,1,593,372.33q9.68,0,15,5.88A20.14,20.14,0,0,1,613.54,391ZM603,388.54a19.24,19.24,0,0,0,.18-2.46c0-3.52-1-6.26-3.09-8.2a10.69,10.69,0,0,0-7.6-2.91q-10.93,0-13,13.57Z"/>
      <path class="cls-1" d="M671.68,374.31v32.25q0,8.06.24,10.09a4.06,4.06,0,0,0,1.77,3.07q1.53,1,5.5,1v2.76q-9.13.12-13.33,1.92h-.73q-1.92-3.3-2-11.41a26.73,26.73,0,0,1-8.38,8.59,19.58,19.58,0,0,1-10.42,2.88,16.72,16.72,0,0,1-8.71-2.25,12.11,12.11,0,0,1-5.19-5.5c-.94-2.16-1.42-5.42-1.42-9.79V391.19a96.43,96.43,0,0,0-.3-10.42,3.7,3.7,0,0,0-1.89-2.8q-1.59-.9-5.85-.9v-2.76h16.69v34.11a31.11,31.11,0,0,0,.61,7.33,7.13,7.13,0,0,0,3.06,4,9.67,9.67,0,0,0,5.7,1.72,14.8,14.8,0,0,0,8.83-3,16.78,16.78,0,0,0,5.74-6.42c1-2.26,1.53-5.5,1.53-9.7V391.19q0-8.06-.18-9.79a4.77,4.77,0,0,0-1.53-3q-1.35-1.29-5.61-1.29H654.5v-2.76Z"/>
      <path class="cls-1" d="M702.79,384.88a20.52,20.52,0,0,1,6.64-8.95q4.59-3.6,9-3.6a8.13,8.13,0,0,1,6.25,2.46,7.45,7.45,0,0,1,2.27,5,4.22,4.22,0,0,1-1.17,3,3.74,3.74,0,0,1-2.85,1.26q-3,0-4.56-4.45c-.72-2-1.81-3-3.25-3q-2.58,0-6.19,3.51a16.33,16.33,0,0,0-4.62,7.3,41.68,41.68,0,0,0-1,10.39v8.77q0,7.88.21,9.91a4.21,4.21,0,0,0,1.71,3.13c1,.72,2.79,1.08,5.35,1.08h1.68v2.76H686.09v-2.76h1.26q3.61,0,5.14-1a3.94,3.94,0,0,0,1.83-2.79,96.46,96.46,0,0,0,.3-10.33V392.75q0-7.94-.21-9.94a4.24,4.24,0,0,0-1.71-3.13q-1.5-1.11-5.35-1.11h-1.26v-2.7a84.42,84.42,0,0,0,14.78-3.54A39.92,39.92,0,0,1,702.79,384.88Z"/>
    </g>
    <polyline class="cls-2" points="344.98 422.42 344.98 420.58 344.98 174.54 396.63 174.54 396.63 93.69 431.71 93.69 431.71 174.54 483.36 174.54 483.36 422.42"/>
    <path class="cls-2" d="M346.91,422.42V310.83l38.27-9.2a4.35,4.35,0,0,0,4.54-4.13V208.89a4.35,4.35,0,0,0-4.54-4.14H300.73c-2.51,0-4.55,1.85-4.55,6.44V299.8a7.84,7.84,0,0,0,4.55,1.83l38.27,9.2V422.42"/>
    <polygon class="cls-1" points="346.1 422.42 311.77 423.48 311.77 420.83 346.91 420.83 346.1 422.42"/>
    <polygon class="cls-1" points="501.95 420.59 501.95 423.49 483.36 422.42 483.36 419.57 501.95 420.59"/>
  </g>
</svg>
